<?xml version="1.0" standalone="no"?>
<!DOCTYPE svg PUBLIC "-//W3C//DTD SVG 20010904//EN"
 "http://www.w3.org/TR/2001/REC-SVG-20010904/DTD/svg10.dtd">
<svg version="1.0" xmlns="http://www.w3.org/2000/svg"
 width="48.000000pt" height="49.000000pt" viewBox="0 0 48.000000 49.000000"
 preserveAspectRatio="xMidYMid meet">

<g transform="translate(0.000000,49.000000) scale(0.100000,-0.100000)"
fill="#000000" stroke="none">
<path d="M210 405 c0 -9 5 -15 11 -13 6 2 11 8 11 13 0 5 -5 11 -11 13 -6 2
-11 -4 -11 -13z"/>
<path d="M252 409 c2 -6 8 -10 13 -10 5 0 11 4 13 10 2 6 -4 11 -13 11 -9 0
-15 -5 -13 -11z"/>
<path d="M84 385 c4 -15 17 -36 29 -46 22 -17 22 -18 2 -25 -35 -12 -75 -56
-81 -90 -16 -87 82 -163 158 -123 18 9 24 8 37 -10 l16 -21 13 20 c10 16 16
18 32 10 73 -39 170 34 156 118 -5 36 -50 92 -73 92 -19 0 -16 8 12 42 26 31
34 65 13 52 -7 -4 -45 -30 -84 -57 l-71 -49 -69 49 c-101 72 -98 71 -90 38z
m119 -137 c24 -28 21 -65 -8 -93 -39 -40 -97 -29 -116 22 -29 76 71 134 124
71z m161 21 c13 -7 30 -25 37 -42 35 -84 -95 -135 -133 -52 -15 34 -1 76 32
92 31 16 33 16 64 2z"/>
<path d="M112 204 c8 -41 68 -44 68 -3 0 18 -2 20 -16 8 -13 -10 -20 -10 -36
0 -17 10 -19 10 -16 -5z"/>
<path d="M301 202 c-2 -43 59 -40 67 4 3 15 1 17 -9 7 -7 -7 -21 -13 -30 -13
-10 0 -20 6 -22 13 -3 6 -6 2 -6 -11z"/>
<path d="M210 365 c0 -9 5 -15 11 -13 6 2 11 8 11 13 0 5 -5 11 -11 13 -6 2
-11 -4 -11 -13z"/>
<path d="M250 364 c0 -17 22 -14 28 4 2 7 -3 12 -12 12 -9 0 -16 -7 -16 -16z"/>
</g>
</svg>
